# xmcd
#
# Track frame offsets:
#	150
#	16159
#	34322
#	46708
#	59883
#	72748
#	88894
#	103885
#	120688
#	134104
#	153554
#	171070
#	187217
#	199595
#
# Disc length: 2946 seconds
# Revision: 0
# Processed by: cddbd v1.5.2PL0 Copyright (c) Steve Scherf et al.
# Submitted via: dBpowerAMP V12.0
#
DISCID=d90b800e
DTITLE=Kathy Kallick Band - Foxhouds
DYEAR=2015
DGENRE=Country
TTITLE0=Foxhounds
TTITLE1=So Danged Lonesome
TTITLE2=I'm Not Your Honey-Baby Now
TTITLE3=I'll Forgive You
TTITLE4=Don't Let Your Deal Go Down
TTITLE5=Snowflakes
TTITLE6=Sally Ann
TTITLE7=Longest Day of the Year
TTITLE8=Roscoe
TTITLE9=Tear Stained Letter
TTITLE10=My Montana Home
TTITLE11=Banjo Pickin' Girl
TTITLE12=Kentucky Mandolin
TTITLE13=In Texas
EXTD=
EXTT0=
EXTT1=
EXTT2=
EXTT3=
EXTT4=
EXTT5=
EXTT6=
EXTT7=
EXTT8=
EXTT9=
EXTT10=
EXTT11=
EXTT12=
EXTT13=
PLAYORDER=
